<svg xmlns="http://www.w3.org/2000/svg" width="28.66" height="25.5" viewBox="0 0 28.66 25.5">
  <path id="heart" class="cls-1" fill="#1482b3" d="M1125.67,1359.5a1.685,1.685,0,0,1-1.11-.42c-1.16-1.01-2.27-1.96-3.26-2.8h0a60.318,60.318,0,0,1-7.12-6.68,10.665,10.665,0,0,1-2.84-6.99,8.925,8.925,0,0,1,2.27-6.11,7.7,7.7,0,0,1,5.73-2.5,7.234,7.234,0,0,1,4.51,1.55,9.479,9.479,0,0,1,1.82,1.91,9.479,9.479,0,0,1,1.82-1.91,7.206,7.206,0,0,1,4.5-1.55,7.723,7.723,0,0,1,5.74,2.5,8.972,8.972,0,0,1,2.27,6.11,10.665,10.665,0,0,1-2.84,6.99,61.12,61.12,0,0,1-7.12,6.68c-0.99.84-2.1,1.79-3.26,2.8A1.685,1.685,0,0,1,1125.67,1359.5Zm-6.33-23.82a6.057,6.057,0,0,0-4.5,1.95,7.33,7.33,0,0,0-1.82,4.98,8.977,8.977,0,0,0,2.45,5.92,60.219,60.219,0,0,0,6.91,6.47h0.01c0.99,0.85,2.11,1.8,3.28,2.82,1.17-1.02,2.29-1.98,3.28-2.82a59.392,59.392,0,0,0,6.91-6.47,8.993,8.993,0,0,0,2.46-5.92,7.29,7.29,0,0,0-1.83-4.98,6.041,6.041,0,0,0-4.5-1.95,5.541,5.541,0,0,0-3.47,1.2,8.034,8.034,0,0,0-1.94,2.24,1.056,1.056,0,0,1-1.82,0,8.2,8.2,0,0,0-1.94-2.24A5.548,5.548,0,0,0,1119.34,1335.68Z" transform="translate(-1111.34 -1334)"/>
</svg>