<svg xmlns="http://www.w3.org/2000/svg" width="28.82" height="28.34" viewBox="0 0 28.82 28.34">
  
  <path id="Path_55" data-name="Path 55" fill="#1482b3" class="cls-1" d="M1241.84,1353.32l-1.68-4.86a12.165,12.165,0,1,0-23.09-5.51,8.846,8.846,0,0,0-2.69,10.89l-1.15,3.36a1.564,1.564,0,0,0,.37,1.63,1.618,1.618,0,0,0,1.12.47,1.581,1.581,0,0,0,.52-0.09l3.35-1.15a9,9,0,0,0,3.79.85h0.01a8.831,8.831,0,0,0,7.16-3.64,12.144,12.144,0,0,0,5.03-1.23l4.87,1.67a1.842,1.842,0,0,0,1.94-.44A1.9,1.9,0,0,0,1241.84,1353.32Zm-19.45,3.88h-0.01a7.142,7.142,0,0,1-3.33-.83,0.847,0.847,0,0,0-.68-0.05l-3.43,1.18,1.18-3.44a0.9,0.9,0,0,0-.06-0.68,7.174,7.174,0,0,1,1.17-8.29,12.2,12.2,0,0,0,10.18,10.05A7.139,7.139,0,0,1,1222.39,1357.2Zm17.79-3.15a0.153,0.153,0,0,1-.18.04l-5.21-1.79a0.863,0.863,0,0,0-.28-0.04,0.846,0.846,0,0,0-.4.1,10.5,10.5,0,0,1-4.86,1.2h-0.02a10.451,10.451,0,1,1,9.25-5.57,0.9,0.9,0,0,0-.06.68l1.8,5.21A0.173,0.173,0,0,1,1240.18,1354.05Z" transform="translate(-1213.12 -1330.94)"/>
</svg>
