<svg xmlns="http://www.w3.org/2000/svg" width="14.781" height="14.85" viewBox="0 0 14.781 14.85">
  <path id="Path_27" fil="#1482b3" data-name="Path 27" class="cls-1" d="M429.509,2279.91l-2.069-2.07a1.376,1.376,0,0,0-2.29.52,1.406,1.406,0,0,1-1.625.88,6.381,6.381,0,0,1-3.841-3.84,1.335,1.335,0,0,1,.887-1.62,1.376,1.376,0,0,0,.517-2.29l-2.069-2.07a1.469,1.469,0,0,0-1.994,0l-1.4,1.4c-1.4,1.48.148,5.39,3.62,8.87s7.387,5.09,8.864,3.62l1.4-1.41A1.47,1.47,0,0,0,429.509,2279.91Z" transform="translate(-415.125 -2269.03)"/>
</svg>
