<svg xmlns="http://www.w3.org/2000/svg" width="24.094" height="32.66" viewBox="0 0 24.094 32.66">
  <path id="Path_61" fill="#1482b3" data-name="Path 61" class="cls-1" d="M827.462,1331.22a4.406,4.406,0,0,0-2.717-.89H808.366v-0.02a4.423,4.423,0,0,0-2.722.89,2.731,2.731,0,0,0-1.132,2.13v26.99a2.515,2.515,0,0,0,.776,1.83,3.119,3.119,0,0,0,3.078.64,4.588,4.588,0,0,0,2.274-1.62l5.916-7.39,5.916,7.39a4.585,4.585,0,0,0,2.273,1.62,3.122,3.122,0,0,0,3.093-.64,2.52,2.52,0,0,0,.762-1.83v-26.99A2.752,2.752,0,0,0,827.462,1331.22Zm-1.175,29.97a0.8,0.8,0,0,1-.376.21,1.115,1.115,0,0,1-.481-0.04,2.771,2.771,0,0,1-1.325-.98l-6.745-8.43a1.041,1.041,0,0,0-.33-0.26,1.128,1.128,0,0,0-1.322.26l-6.744,8.42a2.813,2.813,0,0,1-1.316,1,0.978,0.978,0,0,1-.481.03,0.781,0.781,0,0,1-.376-0.2,1.2,1.2,0,0,1-.328-0.88v-26.99a1.757,1.757,0,0,1,1.9-1.49h16.379a1.736,1.736,0,0,1,1.87,1.49v26.99A1.2,1.2,0,0,1,826.287,1361.19Z" transform="translate(-804.5 -1330.31)"/>
</svg>
