<svg xmlns="http://www.w3.org/2000/svg" width="33.22" height="21.44" viewBox="0 0 33.22 21.44">
  <path id="retweet" fill="#1482b3"class="cls-1" d="M1038.19,1350.33l-5.18,5.17-5.21-5.19,1.83-1.84,2.07,2.06v-12.56a1.255,1.255,0,0,0-.38-0.91,1.3,1.3,0,0,0-.91-0.38h-13.97l-2.6-2.59h16.57a3.875,3.875,0,0,1,3.88,3.89v12.58l2.06-2.06Zm-11.94,2.56h-13.5a1.28,1.28,0,0,1-1.29-1.29v-12.56l2.07,2.06,1.83-1.84-5.21-5.19-5.18,5.17,1.83,1.84,2.07-2.07v12.58a3.83,3.83,0,0,0,1.12,2.75,3.882,3.882,0,0,0,2.76,1.15h16.57l-2.61-2.6h-0.46Z" transform="translate(-1004.97 -1334.06)"/>
</svg>
